<svg xmlns="http://www.w3.org/2000/svg" xmlns:xlink="http://www.w3.org/1999/xlink" version="1.1" width="256" height="256" viewBox="0 0 256 256" xml:space="preserve">
<desc>Created with Fabric.js 1.7.22</desc>
<defs>
</defs>
<g transform="translate(128 128) scale(0.72 0.72)" style="">
	<g style="stroke: none; stroke-width: 0; stroke-dasharray: none; stroke-linecap: butt; stroke-linejoin: miter; stroke-miterlimit: 10; fill: none; fill-rule: nonzero; opacity: 1;" transform="translate(-175.05 -175.05) scale(3.89 3.89)" >
	<path d="M 86.181 3.998 H 6 L 3.542 59.62 c 0 2.109 2.887 4.903 4.997 4.903 l 9.334 0.283 l 2.076 15.308 L 33.21 67.098 h 52.97 c 2.109 0 3.819 -1.71 3.819 -3.819 V 7.817 C 90 5.708 88.29 3.998 86.181 3.998 z" style="stroke: none; stroke-width: 1; stroke-dasharray: none; stroke-linecap: butt; stroke-linejoin: miter; stroke-miterlimit: 10; fill: rgb(105,188,69); fill-rule: nonzero; opacity: 1;" transform=" matrix(1 0 0 1 0 0) " stroke-linecap="round" />
	<path d="M 19.948 80.113 V 63.098 H 9.819 C 7.71 63.098 6 61.388 6 59.279 V 3.998 H 3.819 C 1.71 3.998 0 5.708 0 7.817 v 55.461 c 0 2.109 1.71 3.819 3.819 3.819 h 10.129 v 18.904 L 19.948 80.113 z" style="stroke: none; stroke-width: 1; stroke-dasharray: none; stroke-linecap: butt; stroke-linejoin: miter; stroke-miterlimit: 10; fill: rgb(85,159,52); fill-rule: nonzero; opacity: 1;" transform=" matrix(1 0 0 1 0 0) " stroke-linecap="round" />
</g>
</g>
</svg>