<?xml version="1.0" encoding="iso-8859-1"?>
<!-- Generator: Adobe Illustrator 19.0.0, SVG Export Plug-In . SVG Version: 6.00 Build 0)  -->
<svg version="1.1" id="Layer_1" xmlns="http://www.w3.org/2000/svg" xmlns:xlink="http://www.w3.org/1999/xlink" x="0px" y="0px"
	 viewBox="0 0 512 512" style="enable-background:new 0 0 512 512;" xml:space="preserve">
<path style="fill:#ACABB1;" d="M256.002,0H256C157.616,0.002,77.576,80.043,77.576,178.425c0,63.183,33.013,118.796,82.693,150.507
	c8.882,5.669,18.3,10.567,28.154,14.615c20.854,8.566,43.671,13.303,67.577,13.303h0.002c23.906,0,46.723-4.737,67.578-13.303
	c9.855-4.048,19.273-8.946,28.154-14.615c49.678-31.712,82.693-87.324,82.693-150.507C434.427,80.042,354.385,0,256.002,0z
	 M256.002,263.759H256c-0.568,0-1.128-0.031-1.694-0.042c-0.898-0.019-1.8-0.023-2.69-0.068c-0.092-0.005-0.182-0.017-0.273-0.022
	c-2.811-0.152-5.589-0.434-8.319-0.853c-0.177-0.028-0.354-0.067-0.531-0.095c-4.046-0.647-8.001-1.567-11.84-2.763
	c-0.051-0.016-0.101-0.036-0.152-0.051c-34.635-10.87-59.833-43.266-59.833-81.439s25.198-70.57,59.833-81.438
	c0.05-0.017,0.101-0.036,0.152-0.051c3.838-1.196,7.792-2.116,11.84-2.763c0.177-0.029,0.354-0.067,0.531-0.095
	c2.732-0.42,5.509-0.701,8.319-0.853c0.092-0.006,0.182-0.017,0.273-0.022c0.891-0.045,1.792-0.051,2.69-0.068
	c0.565-0.012,1.126-0.043,1.694-0.043h0.002c47.053,0,85.334,38.281,85.334,85.334C341.335,225.48,303.055,263.759,256.002,263.759z
	"/>
<path style="fill:#FF6243;" d="M497.427,480.973c-24.928-70.531-78.954-125.064-145.693-152.04
	c-8.882,5.669-18.3,10.567-28.154,14.615c-20.856,8.566-43.672,13.303-67.578,13.303H256c-23.906,0-46.721-4.737-67.577-13.303
	c-9.855-4.048-19.273-8.946-28.154-14.615c-66.74,26.976-120.766,81.509-145.696,152.04c-2.518,7.121-1.421,15.025,2.942,21.192
	C21.876,508.334,28.962,512,36.517,512H256h219.485c7.554,0,14.639-3.666,19.002-9.835
	C498.848,495.998,499.945,488.096,497.427,480.973z"/>
<path style="fill:#57565C;" d="M256,217.213c-21.388,0-38.787-17.4-38.787-38.788c0-21.386,17.399-38.787,38.787-38.788V93.091
	c-0.568,0-1.128,0.033-1.694,0.043c-0.898,0.017-1.8,0.023-2.69,0.068c-0.092,0.005-0.182,0.016-0.273,0.022
	c-2.811,0.152-5.589,0.433-8.319,0.853c-0.177,0.028-0.354,0.065-0.531,0.095c-4.046,0.647-8.001,1.567-11.84,2.763
	c-0.051,0.016-0.101,0.034-0.152,0.051c-34.635,10.868-59.833,43.266-59.833,81.438c0,38.174,25.198,70.57,59.833,81.44
	c0.05,0.016,0.099,0.036,0.152,0.051c3.838,1.196,7.792,2.116,11.84,2.763c0.177,0.028,0.354,0.067,0.531,0.095
	c2.732,0.419,5.509,0.701,8.319,0.853c0.092,0.005,0.182,0.017,0.273,0.022c0.891,0.045,1.792,0.05,2.69,0.068
	c0.565,0.012,1.126,0.042,1.694,0.042L256,217.213L256,217.213z"/>
<path style="fill:#FFFFFF;" d="M217.212,178.425c0,21.388,17.399,38.788,38.787,38.788v-77.576
	C234.611,139.639,217.212,157.039,217.212,178.425z"/>
<path style="fill:#57565C;" d="M256,139.637L256,139.637c21.389,0,38.79,17.4,38.79,38.788s-17.4,38.788-38.788,38.788H256v46.546
	h0.002c47.053,0,85.334-38.279,85.334-85.334c0-47.053-38.281-85.334-85.334-85.334H256V139.637z"/>
<path style="fill:#FFFFFF;" d="M294.788,178.425c0-21.388-17.4-38.788-38.788-38.788h-0.002v77.576H256
	C277.389,217.213,294.788,199.813,294.788,178.425z"/>
<path style="fill:#FF0C38;" d="M14.573,480.973c-2.518,7.121-1.421,15.025,2.942,21.192C21.876,508.334,28.962,512,36.517,512H256
	V356.851c-23.906,0-46.721-4.737-67.577-13.303c-9.855-4.048-19.273-8.946-28.154-14.615
	C93.529,355.909,39.503,410.442,14.573,480.973z"/>
<path style="fill:#898890;" d="M256,356.851v-93.091c-0.568,0-1.128-0.031-1.694-0.042c-0.898-0.019-1.8-0.023-2.69-0.068
	c-0.092-0.005-0.182-0.017-0.273-0.022c-2.811-0.152-5.589-0.434-8.319-0.853c-0.177-0.028-0.354-0.067-0.531-0.095
	c-4.046-0.647-8.001-1.567-11.84-2.763c-0.051-0.016-0.101-0.036-0.152-0.051c-34.635-10.87-59.833-43.264-59.833-81.439
	c0-38.174,25.198-70.57,59.833-81.438c0.05-0.017,0.099-0.036,0.152-0.051c3.838-1.196,7.792-2.116,11.84-2.763
	c0.177-0.029,0.354-0.067,0.531-0.095c2.732-0.42,5.509-0.701,8.319-0.853c0.092-0.006,0.182-0.017,0.273-0.022
	c0.891-0.045,1.792-0.051,2.69-0.068c0.565-0.012,1.126-0.043,1.694-0.043V0C157.616,0.002,77.576,80.043,77.576,178.425
	c0,63.183,33.013,118.796,82.693,150.507c8.882,5.669,18.3,10.567,28.154,14.615C209.277,352.114,232.093,356.851,256,356.851z"/>
<g>
	<path style="fill:#A9A8AE;" d="M170.668,178.425c0,38.174,25.198,70.57,59.833,81.44
		C195.866,248.995,170.668,216.601,170.668,178.425z"/>
	<path style="fill:#A9A8AE;" d="M230.501,96.987c-34.635,10.868-59.833,43.266-59.833,81.438
		C170.668,140.253,195.866,107.856,230.501,96.987z"/>
	<path style="fill:#A9A8AE;" d="M254.306,263.717c-0.898-0.019-1.8-0.023-2.69-0.068
		C252.506,263.694,253.407,263.699,254.306,263.717z"/>
	<path style="fill:#A9A8AE;" d="M251.342,263.627c-2.811-0.152-5.589-0.434-8.319-0.853
		C245.754,263.193,248.531,263.475,251.342,263.627z"/>
	<path style="fill:#A9A8AE;" d="M251.614,93.203c0.891-0.045,1.792-0.051,2.69-0.068C253.407,93.152,252.506,93.158,251.614,93.203z
		"/>
	<path style="fill:#A9A8AE;" d="M242.491,262.681c-4.046-0.647-8.001-1.567-11.84-2.763
		C234.49,261.114,238.444,262.034,242.491,262.681z"/>
	<path style="fill:#A9A8AE;" d="M230.653,96.936c3.838-1.196,7.792-2.116,11.84-2.763C238.444,94.818,234.49,95.738,230.653,96.936z
		"/>
	<path style="fill:#A9A8AE;" d="M243.021,94.078c2.732-0.42,5.509-0.701,8.319-0.853C248.531,93.377,245.754,93.658,243.021,94.078z
		"/>
</g>
<g>
</g>
<g>
</g>
<g>
</g>
<g>
</g>
<g>
</g>
<g>
</g>
<g>
</g>
<g>
</g>
<g>
</g>
<g>
</g>
<g>
</g>
<g>
</g>
<g>
</g>
<g>
</g>
<g>
</g>
</svg>
