<?xml version="1.0" encoding="UTF-8" standalone="no"?>
<svg
   version="1.1"
   id="Layer_1"
   x="0px"
   y="0px"
   viewBox="0 0 122.88 62.85"
   style="enable-background:new 0 0 122.88 62.85"
   xml:space="preserve"
   sodipodi:docname="livecam1.svg"
   inkscape:version="1.1.2 (b8e25be833, 2022-02-05)"
   xmlns:inkscape="http://www.inkscape.org/namespaces/inkscape"
   xmlns:sodipodi="http://sodipodi.sourceforge.net/DTD/sodipodi-0.dtd"
   xmlns="http://www.w3.org/2000/svg"
   xmlns:svg="http://www.w3.org/2000/svg"><defs
     id="defs11" /><sodipodi:namedview
     id="namedview9"
     pagecolor="#ffffff"
     bordercolor="#666666"
     borderopacity="1.0"
     inkscape:pageshadow="2"
     inkscape:pageopacity="0.0"
     inkscape:pagecheckerboard="0"
     showgrid="false"
     inkscape:zoom="8.6100262"
     inkscape:cx="61.381927"
     inkscape:cy="31.474933"
     inkscape:window-width="3440"
     inkscape:window-height="1369"
     inkscape:window-x="-8"
     inkscape:window-y="-8"
     inkscape:window-maximized="1"
     inkscape:current-layer="Layer_1" /><style
     type="text/css"
     id="style2">.st0{fill-rule:evenodd;clip-rule:evenodd;}</style><g
     id="g6"><path
       class="st0"
       d="M7.15,0h80.73c3.93,0,7.15,3.22,7.15,7.15v8.92l27.85-9.95v45.99l-27.85-9.4v13c0,3.93-3.22,7.14-7.15,7.14 H7.15C3.22,62.85,0,59.64,0,55.71V7.15C0,3.22,3.22,0,7.15,0L7.15,0z M26.21,16.01v24.68h4.83v6.16H18.18V16.01H26.21L26.21,16.01z M41.38,16.01v30.84h-8.03V16.01H41.38L41.38,16.01z M63.95,16.01l-4.06,30.84H47.75L43.1,16.01h8.46 c0.95,8.5,1.65,15.7,2.09,21.58c0.43-5.95,0.87-11.22,1.32-15.83l0.53-5.75H63.95L63.95,16.01z M65.68,16.01h13.37v6.16h-5.34v5.89 h4.99v5.85h-4.99v6.78h5.89v6.16H65.68V16.01L65.68,16.01z"
       id="path4" /></g><path
     style="fill:#ff0000;stroke-width:0.116144"
     d="M 18.292627,31.416861 V 16.027826 h 3.948885 3.948884 v 12.3693 12.3693 h 2.380946 2.380945 v 3.019736 3.019735 h -6.32983 -6.32983 z"
     id="path282" /><path
     style="fill:#ff0000;stroke-width:0.116144"
     d="M 33.391304,31.416861 V 16.027826 h 3.948884 3.948885 v 15.389035 15.389036 h -3.948885 -3.948884 z"
     id="path321" /><path
     style="fill:#ff0000;stroke-width:0.116144"
     d="m 47.793118,46.760356 c 0,-0.07565 -4.518,-30.06886 -4.581255,-30.413135 l -0.05868,-0.319395 h 4.178268 c 2.298048,0 4.178268,0.01716 4.178268,0.03813 0,0.02097 0.180137,1.706504 0.400304,3.745633 0.531875,4.926093 1.041789,10.145271 1.399643,14.32592 0.160892,1.879627 0.318237,3.443211 0.349657,3.47463 0.03142,0.03142 0.05733,-0.01692 0.05757,-0.10741 7.13e-4,-0.263632 0.561927,-7.404893 0.756817,-9.630245 0.352152,-4.021045 0.985308,-10.869463 1.049621,-11.353044 l 0.06565,-0.49361 h 4.115983 4.115984 v 0.247087 c 0,0.135898 -0.888499,6.997454 -1.974443,15.247903 -1.085943,8.250448 -1.974442,15.064325 -1.974442,15.141948 0,0.108939 -1.377684,0.141133 -6.03947,0.141133 -3.321709,0 -6.039471,-0.02049 -6.039471,-0.04554 z"
     id="path360" /><path
     style="fill:#ff0000;stroke-width:0.116144"
     d="M 65.795386,31.416861 V 16.027826 h 6.620189 6.620189 v 3.019735 3.019735 H 76.36446 73.693155 v 3.019736 3.019735 h 2.497089 2.497089 v 2.84552 2.845519 h -2.497089 -2.497089 v 3.48431 3.48431 h 2.903592 2.903591 v 3.019736 3.019735 h -6.852476 -6.852476 z"
     id="path399" /></svg>
