<svg xmlns="http://www.w3.org/2000/svg" xmlns:xlink="http://www.w3.org/1999/xlink" version="1.1" width="256" height="256" viewBox="0 0 256 256" xml:space="preserve">
<desc>Created with Fabric.js 1.7.22</desc>
<defs>
</defs>
<g transform="translate(128 128) scale(0.72 0.72)" style="">
	<g style="stroke: none; stroke-width: 0; stroke-dasharray: none; stroke-linecap: butt; stroke-linejoin: miter; stroke-miterlimit: 10; fill: none; fill-rule: nonzero; opacity: 1;" transform="translate(-175.05 -175.05) scale(3.89 3.89)" >
	<path d="M 80.439 84.44 H 9.561 C 4.289 84.44 0 80.151 0 74.88 V 47.182 c 0 -5.272 4.289 -9.561 9.561 -9.561 h 70.878 c 5.271 0 9.561 4.289 9.561 9.561 V 74.88 C 90 80.151 85.711 84.44 80.439 84.44 z" style="stroke: none; stroke-width: 1; stroke-dasharray: none; stroke-linecap: butt; stroke-linejoin: miter; stroke-miterlimit: 10; fill: rgb(216,61,61); fill-rule: nonzero; opacity: 1;" transform=" matrix(1 0 0 1 0 0) " stroke-linecap="round" />
	<path d="M 25.193 74.082 h -9.798 c -1.104 0 -2 -0.896 -2 -2 V 49.979 c 0 -1.104 0.896 -2 2 -2 s 2 0.896 2 2 v 20.103 h 7.798 c 1.104 0 2 0.896 2 2 S 26.298 74.082 25.193 74.082 z" style="stroke: none; stroke-width: 1; stroke-dasharray: none; stroke-linecap: butt; stroke-linejoin: miter; stroke-miterlimit: 10; fill: rgb(255,255,255); fill-rule: nonzero; opacity: 1;" transform=" matrix(1 0 0 1 0 0) " stroke-linecap="round" />
	<path d="M 33.536 74.082 c -1.104 0 -2 -0.896 -2 -2 V 49.979 c 0 -1.104 0.896 -2 2 -2 s 2 0.896 2 2 v 22.103 C 35.536 73.187 34.64 74.082 33.536 74.082 z" style="stroke: none; stroke-width: 1; stroke-dasharray: none; stroke-linecap: butt; stroke-linejoin: miter; stroke-miterlimit: 10; fill: rgb(255,255,255); fill-rule: nonzero; opacity: 1;" transform=" matrix(1 0 0 1 0 0) " stroke-linecap="round" />
	<path d="M 74.605 74.082 h -9.799 c -1.104 0 -2 -0.896 -2 -2 V 49.979 c 0 -1.104 0.896 -2 2 -2 h 9.799 c 1.104 0 2 0.896 2 2 s -0.896 2 -2 2 h -7.799 v 18.103 h 7.799 c 1.104 0 2 0.896 2 2 S 75.71 74.082 74.605 74.082 z" style="stroke: none; stroke-width: 1; stroke-dasharray: none; stroke-linecap: butt; stroke-linejoin: miter; stroke-miterlimit: 10; fill: rgb(255,255,255); fill-rule: nonzero; opacity: 1;" transform=" matrix(1 0 0 1 0 0) " stroke-linecap="round" />
	<path d="M 71.216 63.03 h -6.409 c -1.104 0 -2 -0.896 -2 -2 s 0.896 -2 2 -2 h 6.409 c 1.104 0 2 0.896 2 2 S 72.32 63.03 71.216 63.03 z" style="stroke: none; stroke-width: 1; stroke-dasharray: none; stroke-linecap: butt; stroke-linejoin: miter; stroke-miterlimit: 10; fill: rgb(255,255,255); fill-rule: nonzero; opacity: 1;" transform=" matrix(1 0 0 1 0 0) " stroke-linecap="round" />
	<path d="M 49.209 74.082 L 49.209 74.082 c -0.846 0 -1.601 -0.532 -1.884 -1.329 L 39.457 50.65 c -0.37 -1.041 0.173 -2.185 1.213 -2.555 c 1.04 -0.371 2.185 0.173 2.555 1.213 l 5.983 16.81 l 5.984 -16.81 c 0.37 -1.04 1.514 -1.584 2.555 -1.213 c 1.04 0.37 1.584 1.514 1.213 2.555 l -7.868 22.103 C 50.81 73.55 50.055 74.082 49.209 74.082 z" style="stroke: none; stroke-width: 1; stroke-dasharray: none; stroke-linecap: butt; stroke-linejoin: miter; stroke-miterlimit: 10; fill: rgb(255,255,255); fill-rule: nonzero; opacity: 1;" transform=" matrix(1 0 0 1 0 0) " stroke-linecap="round" />
	<circle cx="45.004" cy="19.654" r="3.064" style="stroke: none; stroke-width: 1; stroke-dasharray: none; stroke-linecap: butt; stroke-linejoin: miter; stroke-miterlimit: 10; fill: rgb(59,151,211); fill-rule: nonzero; opacity: 1;" transform="  matrix(1 0 0 1 0 0) "/>
	<path d="M 38.435 28.217 c -0.512 0 -1.024 -0.195 -1.415 -0.586 c -4.399 -4.4 -4.399 -11.559 0 -15.958 c 0.78 -0.781 2.048 -0.781 2.828 0 c 0.781 0.781 0.781 2.047 0 2.828 c -2.84 2.84 -2.84 7.461 0 10.302 c 0.781 0.781 0.781 2.047 0 2.829 C 39.458 28.022 38.947 28.217 38.435 28.217 z" style="stroke: none; stroke-width: 1; stroke-dasharray: none; stroke-linecap: butt; stroke-linejoin: miter; stroke-miterlimit: 10; fill: rgb(59,151,211); fill-rule: nonzero; opacity: 1;" transform=" matrix(1 0 0 1 0 0) " stroke-linecap="round" />
	<path d="M 51.564 28.217 c -0.512 0 -1.023 -0.195 -1.414 -0.586 c -0.781 -0.781 -0.781 -2.047 0 -2.828 c 1.376 -1.376 2.134 -3.206 2.134 -5.151 c 0 -1.946 -0.758 -3.775 -2.134 -5.15 c -0.781 -0.781 -0.781 -2.047 0 -2.829 s 2.047 -0.781 2.828 0 c 2.132 2.131 3.306 4.965 3.306 7.979 s -1.174 5.848 -3.306 7.979 C 52.588 28.022 52.076 28.217 51.564 28.217 z" style="stroke: none; stroke-width: 1; stroke-dasharray: none; stroke-linecap: butt; stroke-linejoin: miter; stroke-miterlimit: 10; fill: rgb(59,151,211); fill-rule: nonzero; opacity: 1;" transform=" matrix(1 0 0 1 0 0) " stroke-linecap="round" />
	<path d="M 32.907 33.746 c -0.512 0 -1.024 -0.195 -1.414 -0.586 c -7.448 -7.448 -7.448 -19.567 0 -27.015 c 0.78 -0.781 2.048 -0.781 2.828 0 c 0.781 0.781 0.781 2.047 0 2.828 c -5.888 5.888 -5.888 15.47 0 21.358 c 0.781 0.781 0.781 2.047 0 2.828 C 33.93 33.55 33.418 33.746 32.907 33.746 z" style="stroke: none; stroke-width: 1; stroke-dasharray: none; stroke-linecap: butt; stroke-linejoin: miter; stroke-miterlimit: 10; fill: rgb(59,151,211); fill-rule: nonzero; opacity: 1;" transform=" matrix(1 0 0 1 0 0) " stroke-linecap="round" />
	<path d="M 57.093 33.746 c -0.512 0 -1.023 -0.195 -1.414 -0.586 c -0.781 -0.781 -0.781 -2.047 0 -2.828 c 2.853 -2.853 4.424 -6.646 4.424 -10.679 c 0 -4.034 -1.571 -7.827 -4.424 -10.679 c -0.781 -0.781 -0.781 -2.047 0 -2.829 s 2.047 -0.781 2.828 0 c 3.608 3.608 5.596 8.405 5.596 13.508 c 0 5.102 -1.987 9.899 -5.596 13.507 C 58.116 33.55 57.604 33.746 57.093 33.746 z" style="stroke: none; stroke-width: 1; stroke-dasharray: none; stroke-linecap: butt; stroke-linejoin: miter; stroke-miterlimit: 10; fill: rgb(59,151,211); fill-rule: nonzero; opacity: 1;" transform=" matrix(1 0 0 1 0 0) " stroke-linecap="round" />
</g>
</g>
</svg>