<svg id="Layer_1" data-name="Layer 1" xmlns="http://www.w3.org/2000/svg" viewBox="0 0 512 512"><defs><style>.cls-1{fill:#d9e4e8;}.cls-2{fill:#79d3d3;}.cls-3{fill:#f4607f;}.cls-4{fill:#141f38;}.cls-5{fill:#17292d;opacity:0.14;}</style></defs><title>internet-camera-filled</title><path class="cls-1" d="M273.45,422.4h11.12c0-.44,0-.88,0-1.33C377.12,407.22,448.3,327.22,448.3,230.9,448.3,129.12,368.82,45.57,268.67,39a12.78,12.78,0,0,1-25.54,0C143.07,45.68,63.7,129.19,63.7,230.9c0,97.73,73.28,178.67,167.78,190.74-.06.25-.11.51-.17.76h7.23c1,.09,2,.18,2.95.26h0a103.36,103.36,0,0,1-.82,12.77,101.77,101.77,0,0,1-21.66,51h70.55a101.79,101.79,0,0,1-21.62-50.75,103.34,103.34,0,0,1-.85-12.77h0Q270.29,422.69,273.45,422.4Z"/><path class="cls-2" d="M256,166.7a64.2,64.2,0,1,0,64.2,64.2A64.27,64.27,0,0,0,256,166.7Z"/><path class="cls-3" d="M255.9,51.2a12.8,12.8,0,1,0-12.8-12.8A12.81,12.81,0,0,0,255.9,51.2Z"/><path class="cls-4" d="M345.8,230.9A89.8,89.8,0,1,0,256,320.7,89.79,89.79,0,0,0,345.8,230.9ZM256,295.1c-1.19,0-2.36,0-3.53-.1-.47,0-.94,0-1.4-.09s-1-.08-1.46-.13-1.19-.12-1.78-.2-.88-.11-1.31-.18c-1.16-.17-2.3-.37-3.44-.61-.49-.1-1-.2-1.45-.32s-.85-.19-1.27-.3l-.77-.19-1.08-.3-1.33-.4c-.32-.09-.63-.19-.94-.3-1.08-.34-2.15-.72-3.2-1.13-.34-.12-.68-.26-1-.4-.67-.27-1.34-.55-2-.85q-.5-.21-1-.45l-1-.46c-.65-.31-1.3-.64-1.93-1s-1.28-.68-1.9-1l-.93-.54c-.31-.18-.62-.36-.92-.56-.61-.37-1.22-.75-1.81-1.16a64.18,64.18,0,0,1,66.12-109.88c.57.3,1.13.62,1.68,1l.35.21c.42.24.84.5,1.26.77.79.49,1.56,1,2.33,1.53.53.35,1,.72,1.55,1.1s1.13.83,1.69,1.27a.21.21,0,0,0,.08.06c.5.39,1,.79,1.48,1.21l.23.19c.49.41,1,.83,1.45,1.26a63.42,63.42,0,0,1,4.52,4.46q.63.68,1.23,1.38l.22.27c.39.43.75.87,1.1,1.31l.35.43c.4.49.78,1,1.15,1.49l.08.1c.37.5.74,1,1.09,1.51s.64.92.95,1.39c.18.26.35.52.52.79.33.52.66,1,1,1.55s.69,1.16,1,1.75c0,0,0,0,0,0,.31.53.6,1.07.88,1.61l.29.55c.27.53.54,1.07.79,1.61s.61,1.29.89,1.94.57,1.32.83,2,.52,1.33.76,2,.43,1.22.63,1.84c0,.12.08.23.11.35.19.58.37,1.17.54,1.76,0,.12.07.24.1.36.17.59.32,1.17.47,1.76s.23.94.33,1.41.19.83.27,1.25a0,0,0,0,1,0,0c.24,1.18.45,2.37.62,3.58q.08.44.12.87c.19,1.35.32,2.71.41,4.08,0,.64.08,1.29.1,1.94a2.84,2.84,0,0,1,0,.29c0,.7,0,1.42,0,2.13A64.27,64.27,0,0,1,256,295.1Z"/><path class="cls-4" d="M461.1,230.9c0-100.58-72.4-184.23-167.92-201.73a38.41,38.41,0,0,0-74.57,0C123.19,46.79,50.9,130.39,50.9,230.9c0,96.74,67,177.84,157.1,199.45q3.63.87,7.3,1.61a76,76,0,0,1-7.3,24.17,77.4,77.4,0,0,1-26.74,30.27H140.7a12.8,12.8,0,0,0,0,25.6H371.1a12.8,12.8,0,1,0,0-25.6H327.34a77.2,77.2,0,0,1-31-40.82,74.47,74.47,0,0,1-2.94-13q1.47-.27,2.94-.57C390.29,413.3,461.1,330.37,461.1,230.9ZM255.9,25.6a12.81,12.81,0,0,1,12.8,12.8c0,.21,0,.42,0,.63a12.57,12.57,0,0,1-1.74,5.82,8.14,8.14,0,0,1-.65,1,3.75,3.75,0,0,1-.36.48,4,4,0,0,1-.38.46,4.09,4.09,0,0,1-.4.44,4.16,4.16,0,0,1-.42.42,4.08,4.08,0,0,1-.44.4,4,4,0,0,1-.46.38,5.34,5.34,0,0,1-.47.36,9.15,9.15,0,0,1-.83.55l-.45.26a12.55,12.55,0,0,1-2.38,1l-.35.11-.35.09-.6.13a11.8,11.8,0,0,1-1.19.18,5.28,5.28,0,0,1-.56,0q-.37,0-.75,0t-.75,0a5.28,5.28,0,0,1-.56,0A11.79,11.79,0,0,1,253.4,51l-.6-.13-.35-.09-.35-.11a12,12,0,0,1-2.12-.88,4,4,0,0,1-.4-.22,1.92,1.92,0,0,1-.31-.18l-.49-.31-.36-.25a4.71,4.71,0,0,1-.44-.34,4,4,0,0,1-.46-.38,5.45,5.45,0,0,1-.44-.4,4.16,4.16,0,0,1-.42-.42,4.09,4.09,0,0,1-.4-.44,4,4,0,0,1-.38-.46,9.15,9.15,0,0,1-.7-1,5.71,5.71,0,0,1-.33-.52,5.19,5.19,0,0,1-.28-.52,7.67,7.67,0,0,1-.51-1.09,12.54,12.54,0,0,1-.94-4.2c0-.21,0-.43,0-.64A12.81,12.81,0,0,1,255.9,25.6Zm33.67,460.8H219a101.77,101.77,0,0,0,21.66-51q7.59.57,15.32.57,6,0,11.95-.35A101.79,101.79,0,0,0,289.57,486.4ZM256,410.4c-1.23,0-2.45,0-3.67,0s-2.44-.06-3.65-.11-2.43-.11-3.64-.18-2.41-.16-3.61-.26c-1-.08-2-.17-3-.27l-1.11-.11c-1-.1-2-.22-3-.34-2.19-.27-4.37-.57-6.54-.92-.37,0-.74-.11-1.1-.18-1-.17-2.1-.35-3.14-.55s-2.2-.41-3.29-.63c-.84-.17-1.67-.34-2.5-.53l-1.24-.27c-.86-.19-1.72-.39-2.57-.6l-1.21-.3-2.79-.72c-.63-.16-1.26-.33-1.88-.51l-1.08-.3-.76-.22c-1-.28-2-.58-2.94-.88l-.11,0c-1.1-.34-2.21-.69-3.3-1.06s-2.2-.73-3.3-1.13l-.1,0c-1.06-.37-2.12-.76-3.17-1.16-2.18-.8-4.33-1.66-6.46-2.56-1.07-.44-2.13-.9-3.18-1.37q-6.33-2.79-12.39-6.07-7.59-4.07-14.72-8.85a179.43,179.43,0,0,1-80-149.32c0-87.07,62.31-159.84,144.68-176.1a38.4,38.4,0,0,0,69.46,0,178.77,178.77,0,0,1,77,35.67q2.91,2.29,5.71,4.74,1.88,1.61,3.7,3.29l.05,0,1.77,1.64,1.79,1.71c.59.57,1.18,1.14,1.77,1.73q2.64,2.61,5.16,5.34c.57.6,1.12,1.21,1.67,1.82,1.66,1.84,3.29,3.72,4.86,5.62.53.63,1,1.28,1.58,1.92q4.67,5.76,8.84,11.91a0,0,0,0,0,0,0c.47.68.93,1.37,1.38,2.06s.92,1.39,1.36,2.09c1.27,2,2.5,4,3.69,6,.06.12.13.23.2.35.43.72.84,1.43,1.24,2.16q1.23,2.16,2.4,4.36c1.16,2.21,2.28,4.44,3.36,6.71.72,1.51,1.42,3,2.09,4.55.34.76.68,1.53,1,2.3s.67,1.6,1,2.41.6,1.49.89,2.24.59,1.49.87,2.24.61,1.64.91,2.47.54,1.51.8,2.27.57,1.66.85,2.51.52,1.59.77,2.39c.5,1.62,1,3.24,1.45,4.88.23.81.45,1.63.67,2.45.6,2.24,1.15,4.49,1.66,6.77.1.41.19.83.28,1.24.14.64.28,1.29.41,1.93.17.84.34,1.68.5,2.52.35,1.84.68,3.7,1,5.56.08.5.16,1,.23,1.51.18,1.14.34,2.28.49,3.42.1.76.19,1.53.28,2.29s.2,1.73.28,2.59.16,1.62.23,2.43l0,.28c.07.81.13,1.62.19,2.43,0,.15,0,.31,0,.47,0,.74.1,1.48.14,2.22.06,1,.12,2.1.16,3.15,0,.7.05,1.41.07,2.12,0,.88.05,1.76.06,2.65s0,1.77,0,2.66c0,85.12-59.55,156.58-139.17,174.94A179.93,179.93,0,0,1,256,410.4Z"/><path class="cls-5" d="M230.3,268.8a63.54,63.54,0,0,1-31.14-8.11,64.19,64.19,0,1,0,87.52-86.17A64,64,0,0,1,230.3,268.8Z"/><path class="cls-5" d="M204.7,384a191.4,191.4,0,0,1-53.83-7.7A178.52,178.52,0,0,0,256,410.4c99,0,179.5-80.52,179.5-179.5A179.23,179.23,0,0,0,367.61,90.43,190.9,190.9,0,0,1,396.7,192C396.7,298,310.74,384,204.7,384Z"/></svg>