<?xml version='1.0' encoding='utf-8'?>
<!DOCTYPE svg PUBLIC '-//W3C//DTD SVG 1.1//EN' 'http://www.w3.org/Graphics/SVG/1.1/DTD/svg11.dtd'>
<svg version="1.1" xmlns="http://www.w3.org/2000/svg" viewBox="0 0 512 512" xmlns:xlink="http://www.w3.org/1999/xlink" enable-background="new 0 0 512 512">
  <g>
    <g>
      <path d="m456.3,211.3c0-110.4-89.8-200.3-200.3-200.3s-200.3,89.9-200.3,200.3c1.42109e-14,85.3 53.6,158.3 128.8,187.1-21.9,20.2-35.7,49.5-35.7,82.1 0,11.3 9.1,20.4 20.4,20.4h173.5c11.3,0 20.4-9.1 20.4-20.4 0-32.6-13.8-61.9-35.6-82.1 75.3-28.8 128.8-101.8 128.8-187.1zm-263.7,248.9c8.3-28.4 33.6-49.2 63.4-49.2 29.8,0 55.1,20.7 63.4,49.2h-126.8zm63.4-89.4c-87.9,0-159.5-71.6-159.5-159.5 0-87.9 71.6-159.5 159.5-159.5s159.5,71.6 159.5,159.5c0,88-71.6,159.5-159.5,159.5z"/>
      <path d="m256,104.2c-59.1,0-107.2,48.1-107.2,107.2 0,59.1 48.1,107.2 107.2,107.2 59.1,0 107.2-48.1 107.2-107.2 0-59.2-48.1-107.2-107.2-107.2zm0,173.5c-36.6,0-66.4-29.8-66.4-66.4 0-36.6 29.8-66.4 66.4-66.4 36.6,0 66.4,29.8 66.4,66.4 0,36.6-29.8,66.4-66.4,66.4z"/>
    </g>
  </g>
</svg>
