<?xml version="1.0" encoding="UTF-8" standalone="no"?>
<svg
   id="Layer_1"
   data-name="Layer 1"
   viewBox="0 0 426.66025 405.37762"
   version="1.1"
   sodipodi:docname="label1.svg"
   inkscape:version="1.1.2 (b8e25be833, 2022-02-05)"
   width="426.66025"
   height="405.37762"
   xmlns:inkscape="http://www.inkscape.org/namespaces/inkscape"
   xmlns:sodipodi="http://sodipodi.sourceforge.net/DTD/sodipodi-0.dtd"
   xmlns="http://www.w3.org/2000/svg"
   xmlns:svg="http://www.w3.org/2000/svg"
   xmlns:rdf="http://www.w3.org/1999/02/22-rdf-syntax-ns#"
   xmlns:cc="http://creativecommons.org/ns#"
   xmlns:dc="http://purl.org/dc/elements/1.1/">
  <sodipodi:namedview
     id="namedview15"
     pagecolor="#ffffff"
     bordercolor="#666666"
     borderopacity="1.0"
     inkscape:pageshadow="2"
     inkscape:pageopacity="0.0"
     inkscape:pagecheckerboard="0"
     showgrid="false"
     inkscape:zoom="1.7050781"
     inkscape:cx="244.56357"
     inkscape:cy="227.8488"
     inkscape:window-width="1745"
     inkscape:window-height="1082"
     inkscape:window-x="128"
     inkscape:window-y="152"
     inkscape:window-maximized="0"
     inkscape:current-layer="Layer_1" />
  <defs
     id="defs4">
    <style
       id="style2">.cls-1{fill:#efeae6;}.cls-2{fill:#ffd38d;}.cls-3{fill:#6d4135;}</style>
  </defs>
  <title
     id="title6">speech-bubbles-filled</title>
  <polygon
     class="cls-2"
     points="85.33,373.33 85.33,480 192,373.33 405.33,373.33 405.33,117.33 21.33,117.33 21.33,373.33 "
     id="polygon10"
     transform="matrix(1.0259641,0,0,1.0452796,-10.524032,-101.31265)" />
  <path
     class="cls-3"
     d="M 21.33,0 C 9.5497663,0 0,9.54977 0,21.33 v 256 c 0,11.78023 9.5497663,21.33 21.33,21.33 H 64 V 384 c -0.0043,19.01038 22.984238,28.52898 36.42,15.08 L 200.84,298.67 h 204.49 c 11.78023,0 21.38773,-9.54991 21.33,-21.33 V 25.66532 C 426.37404,10.46069 419.28971,-0.79123 404.74352,0.216598 Z m 384,277.33 H 192 c -5.65632,0.002 -16.94511,10.83111 -20.94483,14.83065 L 85.33,384 87.316048,303.13527 C 87.605381,291.35468 84.211504,276.738 72.427365,276.74352 L 21.33,277.33 v -256 h 384 z"
     id="path12"
     sodipodi:nodetypes="csssccccsscccccccsccccc" />
  <metadata
     id="metadata933">
    <rdf:RDF>
      <cc:Work
         rdf:about="">
        <dc:title>speech-bubbles-filled</dc:title>
      </cc:Work>
    </rdf:RDF>
  </metadata>
</svg>
