<?xml version="1.0" encoding="UTF-8" standalone="no"?>
<svg
   version="1.1"
   width="140.4501"
   height="108.69746"
   viewBox="0 0 140.45011 108.69746"
   xml:space="preserve"
   id="svg20"
   sodipodi:docname="sos-speech-bubble-14192.svg"
   inkscape:version="1.1.2 (b8e25be833, 2022-02-05)"
   xmlns:inkscape="http://www.inkscape.org/namespaces/inkscape"
   xmlns:sodipodi="http://sodipodi.sourceforge.net/DTD/sodipodi-0.dtd"
   xmlns="http://www.w3.org/2000/svg"
   xmlns:svg="http://www.w3.org/2000/svg"><sodipodi:namedview
   id="namedview22"
   pagecolor="#ffffff"
   bordercolor="#666666"
   borderopacity="1.0"
   inkscape:pageshadow="2"
   inkscape:pageopacity="0.0"
   inkscape:pagecheckerboard="0"
   showgrid="false"
   inkscape:zoom="3.4101562"
   inkscape:cx="125.94731"
   inkscape:cy="120.9622"
   inkscape:window-width="1904"
   inkscape:window-height="1082"
   inkscape:window-x="260"
   inkscape:window-y="260"
   inkscape:window-maximized="0"
   inkscape:current-layer="svg20" />
<desc
   id="desc2">Created with Fabric.js 1.7.22</desc>
<defs
   id="defs4">
</defs>
<g
   transform="matrix(0.40117141,0,0,0.40117141,70.225055,54.347951)"
   id="g18">
	<g
   style="opacity:1;fill:none;fill-rule:nonzero;stroke:none;stroke-width:0;stroke-linecap:butt;stroke-linejoin:miter;stroke-miterlimit:10;stroke-dasharray:none"
   transform="matrix(3.89,0,0,3.89,-175.05,-175.05)"
   id="g16">
	
	
	
	<path
   d="m 34.635,79.827 c -0.784,0 -1.496,-0.458 -1.82,-1.172 -0.324,-0.714 -0.203,-1.551 0.313,-2.143 3.956,-4.538 5.004,-8.882 3.204,-13.278 -0.419,-1.022 0.07,-2.19 1.093,-2.608 1.023,-0.418 2.189,0.07 2.608,1.093 1.761,4.3 1.521,8.605 -0.706,12.854 4.661,-2.316 9.284,-7.496 10.625,-12.604 0.281,-1.068 1.373,-1.708 2.442,-1.427 1.068,0.281 1.707,1.374 1.427,2.442 -2.275,8.658 -11.598,16.843 -19.186,16.843 z"
   style="opacity:1;fill:#000000;fill-rule:nonzero;stroke:none;stroke-width:1;stroke-linecap:butt;stroke-linejoin:miter;stroke-miterlimit:10;stroke-dasharray:none"
   stroke-linecap="round"
   id="path12" />
	<path
   d="M 77.492,64.477 H 51.886 c -1.104,0 -2,-0.896 -2,-2 0,-1.104 0.896,-2 2,-2 H 77.492 C 82.183,60.477 86,56.661 86,51.969 V 22.681 C 86,17.99 82.184,14.174 77.492,14.174 H 12.508 C 7.816,14.173 4,17.99 4,22.681 v 29.288 c 0,4.691 3.816,8.508 8.508,8.508 h 25.121948 c 1.104,0 2,0.896 2,2 0,1.104 -0.896,2 -2,2 H 12.508 C 5.611,64.477 0,58.865 0,51.969 V 22.681 C 0,15.785 5.611,10.174 12.508,10.174 H 77.492 C 84.389,10.173 90,15.784 90,22.681 v 29.288 c 0,6.896 -5.611,12.508 -12.508,12.508 z"
   style="opacity:1;fill:#000000;fill-rule:nonzero;stroke:none;stroke-width:1;stroke-linecap:butt;stroke-linejoin:miter;stroke-miterlimit:10;stroke-dasharray:none"
   stroke-linecap="round"
   id="path14"
   sodipodi:nodetypes="sssssssscsssssssssscsss" />
</g>
</g>
</svg>
