<svg xmlns="http://www.w3.org/2000/svg" xmlns:xlink="http://www.w3.org/1999/xlink" version="1.1" width="256" height="256" viewBox="0 0 256 256" xml:space="preserve">
<desc>Created with Fabric.js 1.7.22</desc>
<defs>
</defs>
<g transform="translate(128 128) scale(0.72 0.72)" style="">
	<g style="stroke: none; stroke-width: 0; stroke-dasharray: none; stroke-linecap: butt; stroke-linejoin: miter; stroke-miterlimit: 10; fill: none; fill-rule: nonzero; opacity: 1;" transform="translate(-175.05 -175.05) scale(3.89 3.89)" >
	<path d="M 72.776 42.173 c -3.782 0 -6.848 -3.066 -6.848 -6.848 c 0 -1.081 0.257 -2.099 0.703 -3.008 h -3.949 H 15.058 H 4.061 C 1.818 32.317 0 34.136 0 36.379 v 8.734 v 22.726 c 0 2.243 1.818 4.061 4.061 4.061 h 67.661 c 2.243 0 4.061 -1.818 4.061 -4.061 V 45.112 V 41.47 C 74.875 41.916 73.857 42.173 72.776 42.173 z" style="stroke: none; stroke-width: 1; stroke-dasharray: none; stroke-linecap: butt; stroke-linejoin: miter; stroke-miterlimit: 10; fill: rgb(249,84,110); fill-rule: nonzero; opacity: 1;" transform=" matrix(1 0 0 1 0 0) " stroke-linecap="round" />
	<path d="M 17.695 63.179 h -8.54 c -0.795 0 -1.439 -0.645 -1.439 -1.439 V 42.477 c 0 -0.795 0.644 -1.439 1.439 -1.439 s 1.439 0.644 1.439 1.439 V 60.3 h 7.1 c 0.795 0 1.439 0.645 1.439 1.439 S 18.49 63.179 17.695 63.179 z" style="stroke: none; stroke-width: 1; stroke-dasharray: none; stroke-linecap: butt; stroke-linejoin: miter; stroke-miterlimit: 10; fill: rgb(255,255,255); fill-rule: nonzero; opacity: 1;" transform=" matrix(1 0 0 1 0 0) " stroke-linecap="round" />
	<path d="M 24.966 63.179 c -0.795 0 -1.439 -0.645 -1.439 -1.439 V 42.477 c 0 -0.795 0.644 -1.439 1.439 -1.439 c 0.795 0 1.439 0.644 1.439 1.439 V 61.74 C 26.405 62.534 25.761 63.179 24.966 63.179 z" style="stroke: none; stroke-width: 1; stroke-dasharray: none; stroke-linecap: butt; stroke-linejoin: miter; stroke-miterlimit: 10; fill: rgb(255,255,255); fill-rule: nonzero; opacity: 1;" transform=" matrix(1 0 0 1 0 0) " stroke-linecap="round" />
	<path d="M 60.759 63.179 H 52.22 c -0.795 0 -1.439 -0.645 -1.439 -1.439 V 42.477 c 0 -0.795 0.645 -1.439 1.439 -1.439 h 8.539 c 0.795 0 1.439 0.644 1.439 1.439 c 0 0.795 -0.645 1.439 -1.439 1.439 h -7.1 V 60.3 h 7.1 c 0.795 0 1.439 0.645 1.439 1.439 S 61.553 63.179 60.759 63.179 z" style="stroke: none; stroke-width: 1; stroke-dasharray: none; stroke-linecap: butt; stroke-linejoin: miter; stroke-miterlimit: 10; fill: rgb(255,255,255); fill-rule: nonzero; opacity: 1;" transform=" matrix(1 0 0 1 0 0) " stroke-linecap="round" />
	<path d="M 57.805 53.548 H 52.22 c -0.795 0 -1.439 -0.645 -1.439 -1.439 s 0.645 -1.439 1.439 -1.439 h 5.585 c 0.795 0 1.439 0.645 1.439 1.439 S 58.599 53.548 57.805 53.548 z" style="stroke: none; stroke-width: 1; stroke-dasharray: none; stroke-linecap: butt; stroke-linejoin: miter; stroke-miterlimit: 10; fill: rgb(255,255,255); fill-rule: nonzero; opacity: 1;" transform=" matrix(1 0 0 1 0 0) " stroke-linecap="round" />
	<path d="M 38.626 63.179 c -0.609 0 -1.152 -0.383 -1.356 -0.957 L 30.413 42.96 c -0.267 -0.749 0.124 -1.572 0.873 -1.839 c 0.748 -0.266 1.572 0.124 1.839 0.873 l 5.501 15.453 l 5.501 -15.453 c 0.267 -0.749 1.091 -1.139 1.839 -0.873 c 0.749 0.267 1.14 1.09 0.873 1.839 l -6.857 19.262 C 39.777 62.796 39.234 63.179 38.626 63.179 z" style="stroke: none; stroke-width: 1; stroke-dasharray: none; stroke-linecap: butt; stroke-linejoin: miter; stroke-miterlimit: 10; fill: rgb(255,255,255); fill-rule: nonzero; opacity: 1;" transform=" matrix(1 0 0 1 0 0) " stroke-linecap="round" />
	<circle cx="72.77799999999999" cy="35.327999999999996" r="3.838" style="stroke: none; stroke-width: 1; stroke-dasharray: none; stroke-linecap: butt; stroke-linejoin: miter; stroke-miterlimit: 10; fill: rgb(75,195,239); fill-rule: nonzero; opacity: 1;" transform="  matrix(1 0 0 1 0 0) "/>
	<path d="M 83.944 47.932 c -0.368 0 -0.737 -0.141 -1.018 -0.422 c -0.562 -0.562 -0.562 -1.473 0 -2.035 c 5.596 -5.597 5.596 -14.703 0 -20.3 c -5.597 -5.596 -14.702 -5.595 -20.3 0 c -0.562 0.562 -1.473 0.562 -2.035 0 s -0.562 -1.474 0 -2.035 c 6.719 -6.719 17.652 -6.719 24.371 0 c 6.718 6.719 6.718 17.652 0 24.37 C 84.68 47.791 84.312 47.932 83.944 47.932 z" style="stroke: none; stroke-width: 1; stroke-dasharray: none; stroke-linecap: butt; stroke-linejoin: miter; stroke-miterlimit: 10; fill: rgb(75,195,239); fill-rule: nonzero; opacity: 1;" transform=" matrix(1 0 0 1 0 0) " stroke-linecap="round" />
	<path d="M 79.126 43.115 c -0.368 0 -0.737 -0.141 -1.018 -0.422 c -0.562 -0.562 -0.562 -1.474 0 -2.035 c 1.424 -1.424 2.209 -3.318 2.209 -5.333 c 0 -2.014 -0.784 -3.908 -2.209 -5.332 c -1.424 -1.424 -3.318 -2.209 -5.332 -2.209 s -3.908 0.784 -5.332 2.209 c -0.562 0.562 -1.473 0.562 -2.035 0 c -0.562 -0.562 -0.562 -1.473 0 -2.035 c 1.968 -1.968 4.584 -3.052 7.368 -3.052 s 5.4 1.084 7.368 3.052 c 1.968 1.968 3.052 4.584 3.052 7.368 c 0 2.784 -1.084 5.4 -3.052 7.368 C 79.862 42.974 79.494 43.115 79.126 43.115 z" style="stroke: none; stroke-width: 1; stroke-dasharray: none; stroke-linecap: butt; stroke-linejoin: miter; stroke-miterlimit: 10; fill: rgb(75,195,239); fill-rule: nonzero; opacity: 1;" transform=" matrix(1 0 0 1 0 0) " stroke-linecap="round" />
</g>
</g>
</svg>