<svg xmlns="http://www.w3.org/2000/svg" xmlns:xlink="http://www.w3.org/1999/xlink" version="1.1" width="256" height="256" viewBox="0 0 256 256" xml:space="preserve">
<desc>Created with Fabric.js 1.7.22</desc>
<defs>
</defs>
<g transform="translate(128 128) scale(0.72 0.72)" style="">
	<g style="stroke: none; stroke-width: 0; stroke-dasharray: none; stroke-linecap: butt; stroke-linejoin: miter; stroke-miterlimit: 10; fill: none; fill-rule: nonzero; opacity: 1;" transform="translate(-175.05 -175.05) scale(3.89 3.89)" >
	<path d="M 73.702 29.909 h -9.421 H 14.653 H 5.232 C 2.895 29.909 1 31.804 1 34.141 v 9.101 v 23.682 c 0 2.337 1.895 4.232 4.232 4.232 h 68.47 c 2.337 0 4.232 -1.895 4.232 -4.232 V 43.242 v -9.101 C 77.934 31.804 76.04 29.909 73.702 29.909 z" style="stroke: none; stroke-width: 1; stroke-dasharray: none; stroke-linecap: butt; stroke-linejoin: miter; stroke-miterlimit: 10; fill: rgb(249,84,110); fill-rule: nonzero; opacity: 1;" transform=" matrix(1 0 0 1 0 0) " stroke-linecap="round" />
	<path d="M 21.479 61.569 H 12.58 c -0.552 0 -1 -0.447 -1 -1 V 40.497 c 0 -0.552 0.448 -1 1 -1 s 1 0.448 1 1 v 19.073 h 7.899 c 0.552 0 1 0.447 1 1 S 22.031 61.569 21.479 61.569 z" style="stroke: none; stroke-width: 1; stroke-dasharray: none; stroke-linecap: butt; stroke-linejoin: miter; stroke-miterlimit: 10; fill: rgb(0,0,0); fill-rule: nonzero; opacity: 1;" transform=" matrix(1 0 0 1 0 0) " stroke-linecap="round" />
	<path d="M 29.055 61.569 c -0.552 0 -1 -0.447 -1 -1 V 40.497 c 0 -0.552 0.448 -1 1 -1 s 1 0.448 1 1 v 20.073 C 30.055 61.122 29.607 61.569 29.055 61.569 z" style="stroke: none; stroke-width: 1; stroke-dasharray: none; stroke-linecap: butt; stroke-linejoin: miter; stroke-miterlimit: 10; fill: rgb(0,0,0); fill-rule: nonzero; opacity: 1;" transform=" matrix(1 0 0 1 0 0) " stroke-linecap="round" />
	<path d="M 66.354 61.569 h -8.898 c -0.553 0 -1 -0.447 -1 -1 V 40.497 c 0 -0.552 0.447 -1 1 -1 h 8.898 c 0.553 0 1 0.448 1 1 s -0.447 1 -1 1 h -7.898 v 18.073 h 7.898 c 0.553 0 1 0.447 1 1 S 66.907 61.569 66.354 61.569 z" style="stroke: none; stroke-width: 1; stroke-dasharray: none; stroke-linecap: butt; stroke-linejoin: miter; stroke-miterlimit: 10; fill: rgb(0,0,0); fill-rule: nonzero; opacity: 1;" transform=" matrix(1 0 0 1 0 0) " stroke-linecap="round" />
	<path d="M 63.276 51.533 h -5.82 c -0.553 0 -1 -0.447 -1 -1 s 0.447 -1 1 -1 h 5.82 c 0.553 0 1 0.447 1 1 S 63.829 51.533 63.276 51.533 z" style="stroke: none; stroke-width: 1; stroke-dasharray: none; stroke-linecap: butt; stroke-linejoin: miter; stroke-miterlimit: 10; fill: rgb(0,0,0); fill-rule: nonzero; opacity: 1;" transform=" matrix(1 0 0 1 0 0) " stroke-linecap="round" />
	<path d="M 43.29 61.569 c -0.423 0 -0.8 -0.267 -0.942 -0.665 l -7.146 -20.072 c -0.186 -0.521 0.086 -1.092 0.606 -1.277 c 0.52 -0.187 1.092 0.086 1.277 0.606 l 6.204 17.427 l 6.203 -17.427 c 0.186 -0.52 0.759 -0.794 1.277 -0.606 c 0.521 0.185 0.792 0.757 0.607 1.277 l -7.146 20.072 C 44.09 61.303 43.713 61.569 43.29 61.569 z" style="stroke: none; stroke-width: 1; stroke-dasharray: none; stroke-linecap: butt; stroke-linejoin: miter; stroke-miterlimit: 10; fill: rgb(0,0,0); fill-rule: nonzero; opacity: 1;" transform=" matrix(1 0 0 1 0 0) " stroke-linecap="round" />
	<path d="M 73.702 72.157 H 5.232 C 2.347 72.157 0 69.81 0 66.925 V 34.141 c 0 -2.885 2.347 -5.232 5.232 -5.232 h 59.049 c 0.553 0 1 0.448 1 1 s -0.447 1 -1 1 H 5.232 C 3.45 30.909 2 32.359 2 34.141 v 32.784 c 0 1.782 1.45 3.232 3.232 3.232 h 68.47 c 1.782 0 3.232 -1.45 3.232 -3.232 V 43.242 c 0 -0.552 0.447 -1 1 -1 s 1 0.448 1 1 v 23.683 C 78.935 69.81 76.587 72.157 73.702 72.157 z" style="stroke: none; stroke-width: 1; stroke-dasharray: none; stroke-linecap: butt; stroke-linejoin: miter; stroke-miterlimit: 10; fill: rgb(0,0,0); fill-rule: nonzero; opacity: 1;" transform=" matrix(1 0 0 1 0 0) " stroke-linecap="round" />
	<circle cx="74.797" cy="33.047" r="3.497" style="stroke: none; stroke-width: 1; stroke-dasharray: none; stroke-linecap: butt; stroke-linejoin: miter; stroke-miterlimit: 10; fill: rgb(75,195,239); fill-rule: nonzero; opacity: 1;" transform="  matrix(1 0 0 1 0 0) "/>
	<path d="M 74.8 37.541 c -2.479 0 -4.497 -2.018 -4.497 -4.497 s 2.018 -4.497 4.497 -4.497 s 4.497 2.018 4.497 4.497 S 77.279 37.541 74.8 37.541 z M 74.8 30.546 c -1.377 0 -2.497 1.12 -2.497 2.497 s 1.12 2.497 2.497 2.497 s 2.497 -1.12 2.497 -2.497 S 76.177 30.546 74.8 30.546 z" style="stroke: none; stroke-width: 1; stroke-dasharray: none; stroke-linecap: butt; stroke-linejoin: miter; stroke-miterlimit: 10; fill: rgb(0,0,0); fill-rule: nonzero; opacity: 1;" transform=" matrix(1 0 0 1 0 0) " stroke-linecap="round" />
	<path d="M 84.841 44.084 c -0.256 0 -0.512 -0.098 -0.707 -0.293 c -0.391 -0.391 -0.391 -1.023 0 -1.414 C 86.627 39.884 88 36.569 88 33.043 c 0 -3.526 -1.373 -6.841 -3.866 -9.334 s -5.808 -3.866 -9.334 -3.866 c -3.525 0 -6.841 1.373 -9.334 3.866 c -0.391 0.391 -1.023 0.391 -1.414 0 s -0.391 -1.023 0 -1.414 c 2.871 -2.871 6.688 -4.452 10.748 -4.452 c 4.061 0 7.878 1.581 10.748 4.452 C 88.419 25.166 90 28.983 90 33.043 s -1.581 7.877 -4.452 10.748 C 85.353 43.987 85.097 44.084 84.841 44.084 z" style="stroke: none; stroke-width: 1; stroke-dasharray: none; stroke-linecap: butt; stroke-linejoin: miter; stroke-miterlimit: 10; fill: rgb(0,0,0); fill-rule: nonzero; opacity: 1;" transform=" matrix(1 0 0 1 0 0) " stroke-linecap="round" />
	<path d="M 80.895 40.138 c -0.256 0 -0.512 -0.098 -0.707 -0.293 c -0.391 -0.39 -0.391 -1.023 0 -1.414 c 2.97 -2.971 2.97 -7.804 0 -10.774 c -1.439 -1.439 -3.353 -2.231 -5.388 -2.231 s -3.948 0.792 -5.387 2.231 c -0.391 0.391 -1.023 0.391 -1.414 0 c -0.391 -0.39 -0.391 -1.023 0 -1.414 c 1.816 -1.817 4.231 -2.817 6.801 -2.817 s 4.984 1 6.802 2.817 c 3.75 3.75 3.75 9.853 0 13.603 C 81.406 40.04 81.15 40.138 80.895 40.138 z" style="stroke: none; stroke-width: 1; stroke-dasharray: none; stroke-linecap: butt; stroke-linejoin: miter; stroke-miterlimit: 10; fill: rgb(0,0,0); fill-rule: nonzero; opacity: 1;" transform=" matrix(1 0 0 1 0 0) " stroke-linecap="round" />
</g>
</g>
</svg>