<?xml version="1.0" encoding="UTF-8" standalone="no"?>
<!-- Generator: Adobe Illustrator 19.0.0, SVG Export Plug-In . SVG Version: 6.00 Build 0)  -->

<svg
   version="1.1"
   id="Layer_1"
   x="0px"
   y="0px"
   viewBox="0 0 511.999 511.999"
   style="enable-background:new 0 0 511.999 511.999;"
   xml:space="preserve"
   sodipodi:docname="security-system-cam.svg"
   inkscape:export-filename="C:\Users\adeel\Desktop\security-system-cam4.png"
   inkscape:export-xdpi="30"
   inkscape:export-ydpi="30"
   inkscape:version="1.1.2 (b8e25be833, 2022-02-05)"
   xmlns:inkscape="http://www.inkscape.org/namespaces/inkscape"
   xmlns:sodipodi="http://sodipodi.sourceforge.net/DTD/sodipodi-0.dtd"
   xmlns="http://www.w3.org/2000/svg"
   xmlns:svg="http://www.w3.org/2000/svg"><defs
   id="defs53" /><sodipodi:namedview
   id="namedview51"
   pagecolor="#ffffff"
   bordercolor="#666666"
   borderopacity="1.0"
   inkscape:pageshadow="2"
   inkscape:pageopacity="0.0"
   inkscape:pagecheckerboard="0"
   showgrid="false"
   inkscape:zoom="1.7050815"
   inkscape:cx="148.67325"
   inkscape:cy="255.70626"
   inkscape:window-width="3440"
   inkscape:window-height="1369"
   inkscape:window-x="-8"
   inkscape:window-y="-8"
   inkscape:window-maximized="1"
   inkscape:current-layer="Layer_1" />






<g
   id="g18">
	
	<path
   id="path16"
   style="fill:#2d2b29"
   d="m 109.485,154.879 c -8.54055,-3.98414 -28.04558,-11.67814 -25.024125,5.42362 6.976749,5.59741 20.152765,13.46344 28.590925,7.02244 3.3628,-4.02931 1.45128,-10.81131 -3.5668,-12.44606 z m 402.5,56.521 C 508.82217,192.33084 486.01159,191.07654 471.47898,184.33582 342.93467,137.73231 214.55425,90.64147 85.907482,44.34258 62.582792,37.613719 39.924986,55.718665 35.238921,78.182498 23.978029,110.51006 10.831516,142.28423 0.86850391,174.99346 -3.1381165,197.35958 14.582025,216.98034 35.528854,221.60435 71.886902,234.82223 108.24495,248.04012 144.603,261.258 c -7.15615,19.36182 16.72523,33.79854 4.61504,51.13966 -7.21603,19.06694 -13.48752,38.56331 -21.28785,57.36459 -8.94589,6.15155 -21.24615,1.85773 -31.692215,3.13875 -16.079325,0 -32.15865,0 -48.237975,0 C 47.343595,356.64997 52.377158,334.68167 33.333094,326.79011 23.142672,325.88509 3.8742602,319.40613 0,332.901 c 0,42.66667 0,85.33333 0,128 3.929242,13.21634 23.0316,7.31084 33.333094,6.11089 C 52.33475,459.15945 47.337896,437.15724 48,420.901 c 27.399259,-0.38299 54.87638,0.80997 82.22137,-0.68024 25.54007,-3.12675 42.40613,-25.3055 48.56595,-48.73094 6.67289,-18.33294 13.34579,-36.66588 20.01868,-54.99882 20.93912,4.50303 27.21422,-29.67469 44.44351,-19.36951 44.88822,15.8973 89.31366,33.32382 134.49761,48.24426 23.31054,10.9297 33.43339,-25.88706 52.2307,-14.38638 13.14547,7.95547 26.25838,-3.3476 28.22078,-16.66404 6.2849,-19.04684 14.98361,-37.51041 19.67228,-56.94463 -5.10578,-12.10321 -9.72395,-15.64445 5.48477,-19.83621 C 494.88154,231.764 511.96941,227.09171 511.985,211.4 Z M 32,444.9 c -1.781459,11.95162 -22.2602363,11.23125 -16,-2.65475 0,-33.78175 0,-67.5635 0,-101.34525 12.306697,-3.27811 18.519964,7.64893 16,18.65475 0,28.44841 0,56.89683 0,85.34525 z m 127.197,-66.367 c -6.58005,20.12337 -28.66329,28.70987 -48.30875,26.367 -20.962748,0 -41.925499,0 -62.88825,0 0.844433,-7.15259 -3.932521,-19.92656 7.991061,-16 24.256795,-0.6613 48.779659,1.38576 72.854629,-1.1422 18.01948,-6.65624 18.56253,-28.32648 25.79347,-43.47674 4.16262,-11.43635 8.32523,-22.87271 12.48784,-34.30906 18.83918,1.69896 13.31634,12.43518 8.0491,24.6598 -5.32637,14.63373 -10.65273,29.26747 -15.9791,43.9012 z m 33.907,-77.615 c -17.94841,2.34674 -37.10086,-19.06467 -31.80931,-33.59095 18.83544,6.84765 37.67087,13.6953 56.50631,20.54295 -5.64544,7.85642 -15.02705,12.80717 -24.697,13.048 z m 268.769,-43.479 c -7.29433,20.05167 -14.58867,40.10333 -21.883,60.155 -6.43429,-3.24174 -20.07793,-3.12171 -12.31191,-12.98515 6.00764,-16.50595 12.01527,-33.0119 18.02291,-49.51785 5.24687,-4.25088 10.65521,1.27812 16.172,2.348 z m 27.09,-40.174 c -24.70478,10.97039 -48.65981,23.85234 -73.90872,33.43804 -24.17813,7.58333 -48.05218,-1.65182 -70.37757,-10.35032 C 276.30247,215.50948 207.92824,190.66624 139.554,165.823 c -21.09127,0.94304 -4.45703,20.13573 8.30554,20.04204 74.70339,26.88426 149.10542,54.69637 223.99955,80.99341 15.29336,7.86832 46.34241,-4.17903 52.10937,1.16012 -7.44546,17.98795 -11.65047,37.65161 -21.76265,54.26957 -14.80175,15.69272 -34.48592,1.99229 -50.83066,-2.88219 C 244.99543,280.73163 138.61572,242.05732 32.236,203.383 12.269719,196.54767 15.39419,173.85975 22.902628,158.85522 25.795085,150.90815 28.687543,142.96107 31.58,135.014 c 7.28433,10.31771 26.895511,25.77765 37.583,13.701 -2.45467,-16.87623 -38.921258,-18.1503 -26.647,-43.746 6.165309,-13.84053 7.880952,-30.488671 19.276203,-41.166781 16.768371,-11.227985 34.552627,2.849096 51.221127,7.216631 126.24186,46.04091 252.67368,91.60066 378.79683,137.94226 8.45182,2.85822 0.94091,6.29365 -2.84716,8.30389 z" />
</g>
<g
   id="g20">
</g>
<g
   id="g22">
</g>
<g
   id="g24">
</g>
<g
   id="g26">
</g>
<g
   id="g28">
</g>
<g
   id="g30">
</g>
<g
   id="g32">
</g>
<g
   id="g34">
</g>
<g
   id="g36">
</g>
<g
   id="g38">
</g>
<g
   id="g40">
</g>
<g
   id="g42">
</g>
<g
   id="g44">
</g>
<g
   id="g46">
</g>
<g
   id="g48">
</g>
</svg>
