<?xml version="1.0" encoding="iso-8859-1"?>
<!-- Generator: Adobe Illustrator 19.0.0, SVG Export Plug-In . SVG Version: 6.00 Build 0)  -->
<svg version="1.1" id="Layer_1" xmlns="http://www.w3.org/2000/svg" xmlns:xlink="http://www.w3.org/1999/xlink" x="0px" y="0px"
	 viewBox="0 0 512 512" style="enable-background:new 0 0 512 512;" xml:space="preserve">
<path style="fill:#D1D3D4;" d="M291.635,416.198c-22.298-10.521-48.947-10.524-71.286-0.005
	c-13.112,6.173-28.243-3.403-28.243-17.919V318.27c0-13.267,12.832-22.809,25.545-18.957c24.73,7.487,51.967,7.487,76.698,0
	c12.704-3.846,25.546,5.676,25.546,18.957v80.017C319.894,412.906,304.654,422.342,291.635,416.198z"/>
<path style="fill:#BCBEC0;" d="M294.349,299.315c-12.366,3.743-25.357,5.614-38.349,5.616v103.377
	c12.244,0,24.484,2.63,35.635,7.892c13.047,6.157,28.258-3.313,28.258-17.911v-80.017
	C319.894,304.995,307.057,295.466,294.349,299.315z"/>
<g>
	<path style="fill:#F1F2F2;" d="M359.732,512H152.256c-10.938,0-19.806-8.868-19.806-19.806c0-90.232,94.365-150.381,176.09-111.82
		c43.116,20.258,70.997,64.155,70.997,111.82C379.538,503.132,370.671,512,359.732,512z"/>
	<path style="fill:#F1F2F2;" d="M256.007,344.523c-94.541,0-172.28-76.44-172.28-172.236C83.727,77.287,161.009,0,256,0
		s172.273,77.287,172.273,172.286C428.273,268.164,350.438,344.523,256.007,344.523z"/>
</g>
<path style="fill:#E6E7E8;" d="M256,0v344.523c0.003,0,0.004,0,0.007,0c94.211,0,172.267-76.127,172.267-172.236
	C428.273,77.287,350.992,0,256,0z"/>
<path style="fill:#51B3DA;" d="M256,279.386c-59.059,0-107.106-48.047-107.106-107.106S196.942,65.174,256,65.174
	s107.106,48.048,107.106,107.106S315.059,279.386,256,279.386z"/>
<path style="fill:#238CC5;" d="M256,65.174v214.212c59.058,0,107.106-48.047,107.106-107.106S315.059,65.174,256,65.174z"/>
<path style="fill:#80D0E1;" d="M289.868,192.087c-10.938,0-19.806-8.868-19.806-19.806c0-7.753-6.308-14.061-14.061-14.061
	c-10.938,0-19.806-8.868-19.806-19.806s8.868-19.806,19.806-19.806c29.596,0,53.673,24.078,53.673,53.673
	C309.674,183.219,300.807,192.087,289.868,192.087z"/>
<path style="fill:#E6E7E8;" d="M256,368.735V512h103.731c10.938,0,19.806-8.868,19.806-19.806
	C379.538,425.779,325.906,368.739,256,368.735z"/>
<path style="fill:#51B3DA;" d="M256,118.607v39.612c7.753,0,14.061,6.308,14.061,14.061c0,10.938,8.868,19.806,19.806,19.806
	c10.938,0,19.806-8.868,19.806-19.806C309.674,142.686,285.596,118.607,256,118.607z"/>
<g>
</g>
<g>
</g>
<g>
</g>
<g>
</g>
<g>
</g>
<g>
</g>
<g>
</g>
<g>
</g>
<g>
</g>
<g>
</g>
<g>
</g>
<g>
</g>
<g>
</g>
<g>
</g>
<g>
</g>
</svg>
