<?xml version="1.0" encoding="iso-8859-1"?>
<!-- Generator: Adobe Illustrator 19.0.0, SVG Export Plug-In . SVG Version: 6.00 Build 0)  -->
<svg version="1.1" id="Layer_1" xmlns="http://www.w3.org/2000/svg" xmlns:xlink="http://www.w3.org/1999/xlink" x="0px" y="0px"
	 viewBox="0 0 512 512" style="enable-background:new 0 0 512 512;" xml:space="preserve">
<path style="fill:#FE9379;" d="M397.31,512H118.249l55.165-183.643c24.711,12.907,52.771,20.205,82.522,20.216h0.063
	c31.012,0,60.206-7.929,85.662-21.854l2.426,8.086L397.31,512z"/>
<path style="fill:#DFDFE2;" d="M255.998,0.002c-98.705,0-179.009,80.303-179.009,179.01c0,98.706,80.303,179.009,179.009,179.009
	s179.009-80.303,179.009-179.009C435.008,80.305,354.705,0.002,255.998,0.002z"/>
<path style="fill:#57565C;" d="M255.998,97.183c-45.121,0-81.829,36.709-81.829,81.829s36.709,81.829,81.829,81.829
	s81.829-36.709,81.829-81.829C337.829,133.891,301.119,97.183,255.998,97.183z"/>
<g>
	<rect x="156.318" y="84.581" style="fill:#FE633E;" width="33.605" height="33.605"/>
	<path style="fill:#FE633E;" d="M397.31,512H255.936V348.573h0.063c31.012,0,60.206-7.929,85.662-21.854l2.426,8.086L397.31,512z"/>
</g>
<path style="fill:#D7D6D9;" d="M435.01,179.012c0,66.707-36.672,125.012-90.924,155.793c-26.023,14.776-56.09,23.219-88.088,23.219
	h-0.063V0h0.063C354.705,0,435.01,80.307,435.01,179.012z"/>
<g>
	<path style="fill:#3E3D43;" d="M337.829,179.012c0,45.115-36.714,81.829-81.829,81.829h-0.063V97.183h0.063
		C301.114,97.183,337.829,133.897,337.829,179.012z"/>
	<path style="fill:#3E3D43;" d="M255.998,229.336c-27.749,0-50.324-22.576-50.324-50.324s22.576-50.324,50.324-50.324
		s50.324,22.576,50.324,50.324C306.324,206.761,283.747,229.336,255.998,229.336z"/>
</g>
<path style="fill:#2B292C;" d="M306.324,179.012c0,27.745-22.579,50.324-50.324,50.324h-0.063V128.688h0.063
	C283.745,128.688,306.324,151.267,306.324,179.012z"/>
<g>
</g>
<g>
</g>
<g>
</g>
<g>
</g>
<g>
</g>
<g>
</g>
<g>
</g>
<g>
</g>
<g>
</g>
<g>
</g>
<g>
</g>
<g>
</g>
<g>
</g>
<g>
</g>
<g>
</g>
</svg>
